<svg width="284" height="284" viewBox="0 0 284 284" fill="none" xmlns="http://www.w3.org/2000/svg">
<g clip-path="url(#clip0_129_205)">
<path d="M142 17.04C125.404 17.04 111.625 28.9547 108.63 44.73C104.681 46.1057 100.864 47.7697 97.2701 49.7C84.002 56.8222 73.4851 68.8922 73.4851 85.2C73.4851 94.2525 75.1491 102.528 78.9876 109.34C77.612 109.074 76.2363 108.763 74.9051 108.63C74.062 108.563 73.2854 108.43 72.4201 108.453C69.8241 108.497 67.0951 109.118 64.7876 110.76C61.7035 112.957 59.9285 116.373 58.9301 120.168C58.8191 120.589 58.686 121.144 58.5751 121.588C56.4673 121.299 53.7826 120.7 50.4101 119.103C49.3007 118.57 48.036 118.06 46.8601 117.328C45.6842 116.595 44.5304 115.663 43.3101 114.665C40.8695 112.69 38.4288 110.161 36.0326 106.855C34.8345 105.191 33.592 103.416 32.4826 101.353C26.9357 91.0575 22.7201 75.2822 22.7201 51.12C22.7201 50.9425 22.7201 50.765 22.7201 50.5875C22.7201 50.41 22.7201 50.2325 22.7201 50.055C22.6757 49.811 22.6091 49.5669 22.5426 49.345C22.4538 49.0344 22.3207 48.746 22.1876 48.4575C21.9879 48.0804 21.7438 47.7254 21.4776 47.3925C21.3666 47.2594 21.2557 47.1485 21.1226 47.0375C20.5013 46.3275 19.7026 45.7729 18.8151 45.44C18.0607 45.2182 17.2841 45.1738 16.5076 45.2625C16.2635 45.3069 16.0195 45.3735 15.7976 45.44C13.1573 46.0391 11.2935 48.4132 11.3601 51.12C11.3601 91.945 23.297 113.09 36.2101 123.54C44.0423 129.863 52.1407 131.993 57.3326 132.77C56.9554 138.916 56.8001 146.327 56.8001 156.023C56.8001 156.977 56.9554 157.908 56.9776 158.863H11.3601C11.1826 158.863 11.0051 158.863 10.8276 158.863C7.58821 159.018 5.08102 161.747 5.23634 164.986C5.39165 168.226 8.12071 170.733 11.3601 170.578H57.8651C59.1076 180.762 61.526 190.879 65.3201 200.398C59.7288 201.684 50.8538 204.369 41.5351 209.805C26.7804 218.414 11.3601 234.677 11.3601 261.28C11.3379 263.321 12.4029 265.229 14.1779 266.272C15.9529 267.293 18.1273 267.293 19.9023 266.272C21.6773 265.229 22.7423 263.321 22.7201 261.28C22.7201 238.893 34.6348 226.889 47.2151 219.568C56.556 214.132 65.9191 211.713 70.1126 210.87C72.5754 215.574 75.3266 220.078 78.4551 224.36C92.7438 243.841 114.11 258.263 141.29 261.28H142.71C169.89 258.263 191.256 243.841 205.545 224.36C208.674 220.078 211.425 215.574 213.888 210.87C218.081 211.713 227.444 214.132 236.785 219.568C249.365 226.889 261.28 238.893 261.28 261.28C261.258 263.321 262.323 265.229 264.098 266.272C265.873 267.293 268.047 267.293 269.822 266.272C271.597 265.229 272.662 263.321 272.64 261.28C272.64 234.677 257.22 218.414 242.465 209.805C233.146 204.369 224.271 201.684 218.68 200.398C222.474 190.879 224.893 180.762 226.135 170.578H272.64C275.879 170.578 278.498 167.959 278.498 164.72C278.498 161.481 275.879 158.863 272.64 158.863H227.023C227.045 157.908 227.2 156.977 227.2 156.023C227.2 146.304 226.912 138.983 226.313 132.948C228.354 132.659 230.972 132.082 233.768 131.173C235.21 130.707 236.652 130.108 238.205 129.398C239.758 128.688 241.378 127.889 242.998 126.913C244.617 125.936 246.17 124.849 247.79 123.54C249.41 122.231 251.029 120.767 252.583 119.103C254.136 117.438 255.733 115.641 257.198 113.6C258.662 111.559 259.949 109.318 261.28 106.855C262.611 104.392 263.854 101.619 265.008 98.69C269.6 86.9972 272.64 71.5325 272.64 51.12C272.64 50.9425 272.64 50.765 272.64 50.5875C272.64 50.41 272.64 50.2325 272.64 50.055C272.574 49.6335 272.44 49.2119 272.285 48.8125C272.174 48.6794 272.063 48.5685 271.93 48.4575C271.797 48.0804 271.619 47.7254 271.398 47.3925C271.287 47.2594 271.176 47.1485 271.043 47.0375C270.865 46.9044 270.688 46.7935 270.51 46.6825C269.379 45.6841 267.914 45.1738 266.428 45.2625C266.184 45.3069 265.939 45.3735 265.718 45.44C264.63 45.6841 263.654 46.2388 262.878 47.0375C262.744 47.215 262.634 47.3925 262.523 47.57C262.256 47.8363 262.012 48.1469 261.813 48.4575C261.746 48.635 261.679 48.8125 261.635 48.99C261.48 49.3229 261.369 49.7 261.28 50.055C261.258 50.2991 261.258 50.521 261.28 50.765C261.28 50.876 261.28 51.0091 261.28 51.12C261.28 89.7707 250.497 106.744 240.69 114.665C233.923 120.145 227.666 121.432 224.36 121.765C223.184 118.348 221.343 115.375 218.503 113.423C215.485 111.337 211.802 110.693 208.385 110.76C206.899 110.782 205.345 111.093 203.77 111.293C208.496 104.126 210.515 95.1622 210.515 85.2C210.515 68.8922 199.998 56.8222 186.73 49.7C183.202 47.8141 179.43 46.261 175.548 44.9075C172.641 28.9991 158.685 17.04 142 17.04ZM142 28.4C151.075 28.4 158.774 33.725 162.413 41.3575C155.601 40.0485 148.701 39.405 142 39.405C135.233 39.405 128.266 40.0263 121.41 41.3575C125.049 33.6807 132.903 28.4 142 28.4ZM142 51.475C155.446 51.475 170.223 54.3594 181.05 60.1725C191.878 65.9857 198.445 73.7735 198.445 85.2C198.445 98.0466 195.76 105.324 187.973 110.583C180.185 115.841 165.652 118.925 142 118.925C118.348 118.925 103.815 115.841 96.0276 110.583C88.2398 105.324 85.5551 98.0466 85.5551 85.2C85.5551 73.7735 92.1226 65.9857 102.95 60.1725C113.778 54.3594 128.554 51.475 142 51.475ZM71.8876 119.813C72.2426 119.746 72.8638 119.724 73.8401 119.813C77.7229 120.168 85.6882 122.874 96.9151 125.493C98.9563 125.958 101.219 126.447 103.483 126.913C113.489 129.841 126.025 130.995 142 130.995C155.69 130.995 166.85 130.063 176.08 127.978C176.302 127.933 176.568 128.022 176.79 127.978C179.963 127.489 182.914 126.913 185.665 126.38C196.67 124.25 204.613 122.209 208.74 122.12C210.804 122.076 211.491 122.519 211.935 122.83C212.379 123.141 213 123.629 213.71 125.848C215.13 130.307 215.84 140.114 215.84 156.023C215.84 177.966 209.006 200.309 196.315 217.615C184.8 233.302 168.47 244.861 147.68 248.855V164.72C147.724 162.967 146.948 161.303 145.594 160.194C144.263 159.084 142.466 158.663 140.758 159.04C138.117 159.639 136.254 162.013 136.32 164.72V248.855C115.53 244.861 99.2004 233.302 87.6851 217.615C74.9938 200.309 68.1601 177.966 68.1601 156.023C68.1601 138.561 68.6704 128 69.9351 123.185C70.5785 120.767 71.2441 120.079 71.3551 119.99C71.4216 119.946 71.5326 119.879 71.8876 119.813Z" fill="#C57CDD"/>
</g>
<defs>
<clipPath id="clip0_129_205">
<rect width="283.5" height="283.5" fill="white"/>
</clipPath>
</defs>
</svg>
