<svg width="284" height="284" viewBox="0 0 284 284" fill="none" xmlns="http://www.w3.org/2000/svg">
<g clip-path="url(#clip0_129_193)">
<path d="M11.36 28.4V34.08V255.6H73.84H221.52H272.64V28.4H266.96C239.503 28.4 221.857 42.5451 214.819 49.5225C205.563 43.8874 177.165 28.4 142 28.4C106.835 28.4 78.4368 43.8874 69.1806 49.5225C62.1434 42.5451 44.4973 28.4 17.04 28.4H11.36ZM136.32 39.9264V102.24H73.84V60.2058C77.1703 58.0459 102.978 41.6663 136.32 39.9264ZM147.68 39.9264C181.022 41.6663 206.83 58.0459 210.16 60.2058V102.24H147.68V39.9264ZM22.72 40.6475C48.3456 42.9742 61.1346 57.5082 62.48 59.2185V244.24H22.72V40.6475ZM261.28 40.6475V244.24H221.52V59.2185C222.865 57.5082 235.654 42.9742 261.28 40.6475ZM28.4 62.48V73.84H56.8V62.48H28.4ZM227.2 62.48V73.84H255.6V62.48H227.2ZM28.4 79.52V90.88H56.8V79.52H28.4ZM227.2 79.52V90.88H255.6V79.52H227.2ZM28.4 96.56V107.92H56.8V96.56H28.4ZM227.2 96.56V107.92H255.6V96.56H227.2ZM28.4 113.6V124.96H56.8V113.6H28.4ZM73.84 113.6H136.32V244.24H73.84V113.6ZM147.68 113.6H210.16V244.24H147.68V113.6ZM227.2 113.6V124.96H255.6V113.6H227.2ZM28.4 164.72V176.08H56.8V164.72H28.4ZM227.2 164.72V176.08H255.6V164.72H227.2ZM28.4 181.76V193.12H56.8V181.76H28.4ZM227.2 181.76V193.12H255.6V181.76H227.2ZM28.4 198.8V210.16H56.8V198.8H28.4ZM227.2 198.8V210.16H255.6V198.8H227.2ZM28.4 215.84V227.2H56.8V215.84H28.4ZM227.2 215.84V227.2H255.6V215.84H227.2Z" fill="#7AB0E7"/>
</g>
<defs>
<clipPath id="clip0_129_193">
<rect width="283.5" height="283.5" fill="white"/>
</clipPath>
</defs>
</svg>
