<svg width="284" height="284" viewBox="0 0 284 284" fill="none" xmlns="http://www.w3.org/2000/svg">
<path d="M224.2 279.7H17.5C10.1 279.7 4 273.6 4 266.2V17.6C4 10.2 10.1 4.09998 17.5 4.09998H224.2C231.6 4.09998 237.7 10.2 237.7 17.6V37.6H234.7V17.6C234.7 11.8 230 7.09998 224.2 7.09998H17.5C11.7 7.09998 7 11.8 7 17.6V266.1C7 271.9 11.7 276.6 17.5 276.6H224.2C230 276.6 234.7 271.9 234.7 266.1V131.1H237.7V266.1C237.7 273.6 231.6 279.7 224.2 279.7Z" fill="#B0C4DE" stroke="#B0C4DE" stroke-width="3" stroke-miterlimit="10"/>
<path d="M209 258.1H28C24.7 258.1 22 255.4 22 252.1V32.1C22 28.8 24.7 26.1 28 26.1H209C212.3 26.1 215 28.8 215 32.1V41.5H212V32.1C212 30.4 210.7 29.1 209 29.1H28C26.3 29.1 25 30.4 25 32.1V252.1C25 253.8 26.3 255.1 28 255.1H209C210.7 255.1 212 253.8 212 252.1V127.2H215V252.1C215 255.4 212.3 258.1 209 258.1Z" fill="#B0C4DE" stroke="#B0C4DE" stroke-width="3" stroke-miterlimit="10"/>
<path d="M232.2 132.6C205.6 132.6 184 111 184 84.4C184 57.8 205.6 36.1 232.2 36.1C258.8 36.1 280.4 57.7 280.4 84.4C280.4 111.1 258.9 132.6 232.2 132.6ZM232.2 39.1C207.2 39.1 187 59.4 187 84.4C187 109.4 207.3 129.6 232.2 129.6C257.1 129.6 277.4 109.3 277.4 84.4C277.4 59.5 257.2 39.1 232.2 39.1Z" fill="#B0C4DE" stroke="#B0C4DE" stroke-width="3" stroke-miterlimit="10"/>
<path d="M49 125.6C42.4 125.6 37 120.2 37 113.6C37 107 42.4 101.6 49 101.6C55.6 101.6 61 107 61 113.6C61 120.2 55.6 125.6 49 125.6ZM49 104.6C44 104.6 40 108.6 40 113.6C40 118.6 44 122.6 49 122.6C54 122.6 58 118.6 58 113.6C58 108.6 54 104.6 49 104.6Z" fill="#B0C4DE" stroke="#B0C4DE" stroke-width="3" stroke-miterlimit="10"/>
<path d="M49 160.5C42.4 160.5 37 155.1 37 148.5C37 141.9 42.4 136.5 49 136.5C55.6 136.5 61 141.9 61 148.5C61 155.1 55.6 160.5 49 160.5ZM49 139.5C44 139.5 40 143.5 40 148.5C40 153.5 44 157.5 49 157.5C54 157.5 58 153.5 58 148.5C58 143.5 54 139.5 49 139.5Z" fill="#B0C4DE" stroke="#B0C4DE" stroke-width="3" stroke-miterlimit="10"/>
<path d="M49 199.2C42.4 199.2 37 193.8 37 187.2C37 180.6 42.4 175.2 49 175.2C55.6 175.2 61 180.6 61 187.2C61 193.8 55.6 199.2 49 199.2ZM49 178.2C44 178.2 40 182.2 40 187.2C40 192.2 44 196.2 49 196.2C54 196.2 58 192.2 58 187.2C58 182.2 54 178.2 49 178.2Z" fill="#B0C4DE" stroke="#B0C4DE" stroke-width="3" stroke-miterlimit="10"/>
<path d="M49 234C42.4 234 37 228.6 37 222C37 215.4 42.4 210 49 210C55.6 210 61 215.4 61 222C61 228.6 55.6 234 49 234ZM49 213C44 213 40 217 40 222C40 227 44 231 49 231C54 231 58 227 58 222C58 217 54 213 49 213Z" fill="#B0C4DE" stroke="#B0C4DE" stroke-width="3" stroke-miterlimit="10"/>
<path d="M191.1 122.7H76.6C71.6 122.7 67.6 118.6 67.6 113.7C67.6 108.8 71.7 104.7 76.6 104.7H191.1V107.7H76.6C73.3 107.7 70.6 110.4 70.6 113.7C70.6 117 73.3 119.7 76.6 119.7H191.1C192.8 119.7 195.6 117.7 196.9 116L199.3 117.8C197.8 119.8 194.2 122.7 191.1 122.7Z" fill="#B0C4DE" stroke="#B0C4DE" stroke-width="3" stroke-miterlimit="10"/>
<path d="M193 157.5H78.5C73.5 157.5 69.5 153.4 69.5 148.5C69.5 143.6 73.6 139.5 78.5 139.5H193C198 139.5 202 143.6 202 148.5C202 153.4 198 157.5 193 157.5ZM78.5 142.5C75.2 142.5 72.5 145.2 72.5 148.5C72.5 151.8 75.2 154.5 78.5 154.5H193C196.3 154.5 199 151.8 199 148.5C199 145.2 196.3 142.5 193 142.5H78.5Z" fill="#B0C4DE" stroke="#B0C4DE" stroke-width="3" stroke-miterlimit="10"/>
<path d="M194 195.2H79.5C74.5 195.2 70.5 191.1 70.5 186.2C70.5 181.3 74.6 177.2 79.5 177.2H194C199 177.2 203 181.3 203 186.2C203 191.1 199 195.2 194 195.2ZM79.5 180.2C76.2 180.2 73.5 182.9 73.5 186.2C73.5 189.5 76.2 192.2 79.5 192.2H194C197.3 192.2 200 189.5 200 186.2C200 182.9 197.3 180.2 194 180.2H79.5Z" fill="#B0C4DE" stroke="#B0C4DE" stroke-width="3" stroke-miterlimit="10"/>
<path d="M194.5 230H80C75 230 71 225.9 71 221C71 216.1 75.1 212 80 212H194.5C199.5 212 203.5 216.1 203.5 221C203.5 225.9 199.4 230 194.5 230ZM80 214.9C76.7 214.9 74 217.6 74 220.9C74 224.2 76.7 226.9 80 226.9H194.5C197.8 226.9 200.5 224.2 200.5 220.9C200.5 217.6 197.8 214.9 194.5 214.9H80Z" fill="#B0C4DE" stroke="#B0C4DE" stroke-width="3" stroke-miterlimit="10"/>
<path d="M231.1 117.6C225.9 117.6 221.7 113.4 221.7 108.2V93.4H208C203 93.4 199 89.4 199 84.4C199 79.4 203 75.4 208 75.4H221.7V61C221.7 55.8 225.9 51.6 231.1 51.6C236.3 51.6 240.5 55.8 240.5 61V75.4H254.7C259.7 75.4 263.7 79.4 263.7 84.4C263.7 89.4 259.7 93.4 254.7 93.4H240.5V108.3C240.5 113.4 236.3 117.6 231.1 117.6ZM208 78.4C204.7 78.4 202 81.1 202 84.4C202 87.7 204.7 90.4 208 90.4H224.7V108.3C224.7 111.8 227.6 114.7 231.1 114.7C234.6 114.7 237.5 111.8 237.5 108.3V90.4H254.7C258 90.4 260.7 87.7 260.7 84.4C260.7 81.1 258 78.4 254.7 78.4H237.5V61C237.5 57.5 234.6 54.6 231.1 54.6C227.6 54.6 224.7 57.5 224.7 61V78.4H208Z" fill="#B0C4DE" stroke="#B0C4DE" stroke-width="3" stroke-miterlimit="10"/>
</svg>
