<svg width="284" height="284" viewBox="0 0 284 284" fill="none" xmlns="http://www.w3.org/2000/svg">
<g clip-path="url(#clip0_129_160)">
<path d="M62.48 17.04V85.2H34.08C24.7366 85.2 17.04 92.8966 17.04 102.24V164.72H28.4V102.24C28.4 99.0307 30.8706 96.56 34.08 96.56H62.48V107.92H221.52V96.56H249.92C253.129 96.56 255.6 99.0307 255.6 102.24V164.72H266.96V102.24C266.96 92.8966 259.263 85.2 249.92 85.2H221.52V17.04H215.84H62.48ZM73.84 28.4H210.16V96.56H73.84V28.4ZM51.12 136.32C49.6136 136.32 48.169 136.919 47.1038 137.984C46.0386 139.049 45.4402 140.494 45.44 142V164.72H56.8V147.68H227.2V164.72H238.56V142C238.56 140.494 237.961 139.049 236.896 137.984C235.831 136.919 234.386 136.32 232.88 136.32H51.12ZM5.68001 176.08C4.7672 176.08 3.86794 176.301 3.05838 176.723C2.24881 177.144 1.55279 177.755 1.02926 178.503C0.505726 179.25 0.170098 180.113 0.0507999 181.018C-0.0684985 181.923 0.0320458 182.844 0.343918 183.701L23.0639 246.259C23.0675 246.278 23.0712 246.296 23.075 246.315C29.0123 262.226 44.092 272.64 60.2058 272.64H223.794C240.377 272.64 255.036 262.097 260.925 246.315C260.929 246.296 260.932 246.278 260.936 246.259L283.656 183.701C283.968 182.844 284.069 181.923 283.949 181.018C283.83 180.113 283.494 179.25 282.971 178.503C282.447 177.755 281.751 177.144 280.942 176.723C280.132 176.301 279.233 176.08 278.32 176.08H5.68001ZM13.7785 187.44H270.222L250.275 242.343C245.94 253.961 235.612 261.28 223.794 261.28H60.2058C49.0556 261.28 38.0117 253.831 33.725 242.343L13.7785 187.44Z" fill="#7BCD88"/>
</g>
<defs>
<clipPath id="clip0_129_160">
<rect width="283.5" height="283.5" fill="white"/>
</clipPath>
</defs>
</svg>
