<svg width="284" height="284" viewBox="0 0 284 284" fill="none" xmlns="http://www.w3.org/2000/svg">
<g clip-path="url(#clip0_129_187)">
<path d="M212.567 10.8386C192.609 11.3686 168.408 23.5698 157.332 34.6458C143.132 48.8458 142 68.1578 153.36 88.6058L141.434 100.532L145.972 105.08C148.812 103.944 152.228 103.372 155.068 103.372L164.154 93.72C165.858 92.016 166.424 88.6125 164.72 86.9085C158.472 77.2525 149.95 58.4996 165.286 43.7316C174.374 34.6436 195.388 23.8538 211.292 23.2858L191.412 43.1658C185.732 49.4138 185.732 59.0743 191.412 64.7543L219.246 92.5885C225.494 98.2685 235.154 98.2685 240.834 92.5885L260.148 73.2743C259.58 89.1783 248.78 110.192 239.692 119.28C228.9 130.072 214.136 130.072 195.96 119.28C193.688 118.144 190.852 118.14 189.148 120.412L183.468 126.092C184.604 128.932 185.168 132.348 184.6 135.188C186.304 135.188 187.444 135.754 189.148 135.754L193.686 131.206C214.702 142.566 233.448 140.866 247.08 127.234C261.28 113.034 276.618 80.0903 269.234 59.0743C268.666 57.3703 266.956 55.6596 265.252 55.0916C263.548 54.5236 261.284 55.096 260.148 56.8L232.314 84.6343C230.61 86.3383 227.772 85.7703 226.068 84.6343L198.234 56.8C198.802 53.96 198.796 51.1156 199.932 49.4116L227.766 21.5885C228.902 20.4525 229.474 18.1783 229.474 16.4743C228.906 14.7703 227.764 13.0596 225.492 12.4916C221.551 11.2136 217.173 10.7163 212.567 10.8386ZM30.763 11.36C30.0022 11.3484 29.2469 11.4897 28.5418 11.7755C27.8367 12.0614 27.1962 12.486 26.6583 13.0241L13.5899 26.0925C12.6998 26.983 12.1307 28.1439 11.972 29.3929C11.8134 30.6419 12.0742 31.9082 12.7135 32.9929L34.8677 70.4786C35.3695 71.3299 36.0848 72.0355 36.9428 72.5258C37.8008 73.0161 38.7718 73.2741 39.76 73.2743H49.9108L120.611 143.431L119.813 144.23C113.95 150.092 114.191 159.366 119.513 165.574C119.609 165.685 119.709 165.793 119.813 165.896L123.218 169.302C127.456 173.539 133.18 173.654 138.45 172.042L146.815 180.407C146.284 187.505 148.399 194.493 153.316 199.41L216.938 263.022C229.915 275.998 251.188 275.998 264.164 263.022C264.198 262.985 264.231 262.948 264.264 262.911C276.678 249.807 276.768 228.4 264.164 215.796L200.542 152.184C195.4 147.043 188.384 145.33 181.516 145.65L173.251 137.385C174.962 132.157 174.701 126.332 170.444 122.076L167.028 118.67C161.165 112.807 151.892 113.049 145.683 118.37C145.576 118.466 145.472 118.566 145.373 118.67L144.552 119.48L73.951 48.8791L74.4058 38.8836C74.454 37.8356 74.2111 36.7948 73.7039 35.8764C73.1968 34.958 72.4452 34.198 71.5325 33.6807L33.4699 12.1033C32.644 11.633 31.7133 11.3775 30.763 11.36ZM31.6283 24.1179L62.8905 41.8457L62.4911 50.8649C62.4551 51.6525 62.5835 52.4391 62.8681 53.1744C63.1527 53.9097 63.5872 54.5778 64.1441 55.136L136.52 127.512L128.643 135.399L56.2564 63.5561C55.1905 62.5018 53.7509 61.9116 52.2516 61.9143H42.9994L24.7391 31.0071L31.6283 24.1179ZM156.344 125.936C157.48 125.927 158.521 126.227 158.996 126.702L162.413 130.108C164.476 132.171 164.155 133.967 162.978 135.144C161.914 136.209 161.315 137.654 161.315 139.16C161.315 140.666 161.914 142.111 162.978 143.176L174.904 155.102C175.554 155.752 176.351 156.235 177.228 156.51C178.106 156.784 179.036 156.842 179.941 156.677C184.49 155.85 189.472 157.178 192.51 160.216L256.133 223.828C263.96 231.655 264.037 246.544 256.055 255.034C247.442 263.576 233.556 263.576 224.97 254.99L161.348 191.378C158.142 188.173 156.618 183.275 157.709 179.275C157.971 178.31 157.973 177.293 157.716 176.327C157.459 175.361 156.951 174.48 156.244 173.773L144.308 161.836C143.356 160.888 142.1 160.308 140.762 160.198C139.423 160.088 138.09 160.456 136.997 161.237C135.103 162.589 132.427 162.446 131.25 161.27L128.133 158.153C126.666 156.402 126.896 153.21 127.844 152.262L153.105 127.001C153.979 126.263 155.209 125.945 156.344 125.936ZM102.806 140.292L77.2458 165.852C73.8378 165.284 69.8596 164.72 66.4516 164.72C36.9156 164.72 13.0685 188.578 13.0685 218.114C13.0685 247.65 36.9156 271.508 66.4516 271.508C95.9876 271.508 119.846 247.65 119.846 218.114C119.846 213.57 119.282 210.162 118.714 206.754L135.754 189.714C135.186 188.01 135.188 186.302 135.188 185.166H134.612C131.772 185.166 128.932 184.604 126.092 183.468L107.92 201.64C106.216 203.344 105.652 205.614 106.788 207.886C107.924 211.294 108.486 214.704 108.486 218.68C108.486 241.968 89.7396 260.714 66.4516 260.714C43.1636 260.714 24.4285 241.968 24.4285 218.68C24.4285 195.392 43.1636 176.646 66.4516 176.646C69.8596 176.646 73.8356 177.22 77.8116 177.788C79.5156 178.356 81.7876 177.784 83.4916 176.08L105.08 153.926C105.08 150.518 105.652 147.114 106.788 144.274L102.806 140.292ZM177.822 169.224L169.79 177.256L232.27 239.736L240.302 231.704L177.822 169.224ZM71.4882 188.572C71.0004 188.58 70.5156 188.65 70.046 188.782L45.6175 195.605C44.6761 195.866 43.8181 196.366 43.1262 197.056C42.4344 197.746 41.9322 198.603 41.6681 199.543L34.8566 223.972C34.5872 224.941 34.5798 225.963 34.8351 226.936C35.0904 227.909 35.5994 228.796 36.3099 229.508L54.4925 247.69C55.1997 248.397 56.0809 248.904 57.0471 249.162C58.0132 249.419 59.0301 249.416 59.995 249.155L84.9892 242.332C85.9568 242.067 86.8371 241.551 87.5405 240.836C88.2439 240.121 88.7455 239.232 88.9941 238.261L95.251 213.843C95.4954 212.888 95.4869 211.885 95.2263 210.934C94.9656 209.983 94.4618 209.116 93.7644 208.418L75.5817 190.236C75.0452 189.699 74.4065 189.275 73.7034 188.989C73.0003 188.703 72.2471 188.561 71.4882 188.572ZM69.9017 200.619L83.4361 214.165L78.81 232.248L60.1947 237.329L46.6936 223.828L51.7524 205.678L69.9017 200.619Z" fill="#FFD542"/>
</g>
<defs>
<clipPath id="clip0_129_187">
<rect width="283.5" height="283.5" fill="white"/>
</clipPath>
</defs>
</svg>
