<svg width="284" height="284" viewBox="0 0 284 284" fill="none" xmlns="http://www.w3.org/2000/svg">
<g clip-path="url(#clip0_129_211)">
<path d="M142 39.76C88.6673 39.76 40.1569 60.9402 4.42636 95.262L0.332764 99.2003L31.7835 131.96L35.8882 128.022C63.4727 101.522 100.817 85.2 142 85.2C183.183 85.2 220.527 101.522 248.112 128.022L252.216 131.96L283.667 99.2003L279.574 95.262C243.843 60.9402 195.333 39.76 142 39.76ZM142 51.12C190.279 51.12 233.975 69.8162 267.237 99.8992L251.517 116.274C222.365 90.1325 184.137 73.84 142 73.84C99.8625 73.84 61.6347 90.1325 32.4824 116.274L16.7626 99.8992C50.0248 69.8162 93.7211 51.12 142 51.12ZM142 107.92C108.187 107.92 76.0889 120.87 51.6081 144.396L47.5034 148.323L79.0762 181.216L83.1809 177.278C99.2098 161.851 120.104 153.36 142 153.36C159.773 153.36 176.824 159.036 191.212 169.39C194.779 167.17 198.552 165.261 202.516 163.722C185.312 149.703 164.141 142 142 142C119.024 142 97.0487 150.217 79.5089 165.264L63.6559 148.756C85.4216 129.705 113.026 119.28 142 119.28C170.974 119.28 198.578 129.7 220.344 148.745L207.719 161.902C213.575 160.158 219.756 159.181 226.157 159.084L236.497 148.323L232.392 144.396C207.911 120.875 175.813 107.92 142 107.92ZM227.2 170.4C195.96 170.4 170.4 195.96 170.4 227.2C170.4 258.44 195.96 284 227.2 284C258.44 284 284 258.44 284 227.2C284 195.96 258.44 170.4 227.2 170.4ZM142 176.08C125.852 176.08 110.497 182.278 98.7787 193.53L94.6851 197.469L142 246.758L159.129 228.92C159.117 228.346 159.04 227.779 159.04 227.2C159.04 221.367 159.856 215.728 161.237 210.326L142 230.362L110.949 198.023C119.86 191.156 130.697 187.44 142 187.44C151.054 187.44 159.791 189.864 167.493 194.34C169.334 191.006 171.465 187.87 173.817 184.911C164.246 179.197 153.332 176.08 142 176.08ZM227.2 181.76C252.192 181.76 272.64 202.208 272.64 227.2C272.64 252.192 252.192 272.64 227.2 272.64C202.208 272.64 181.76 252.192 181.76 227.2C181.76 202.208 202.208 181.76 227.2 181.76ZM251.628 201.074L220.954 236.852L202.206 222.652L195.394 231.748L222.086 252.194L260.148 208.452L251.628 201.074Z" fill="#5FBFFF"/>
</g>
<defs>
<clipPath id="clip0_129_211">
<rect width="283.5" height="283.5" fill="white"/>
</clipPath>
</defs>
</svg>
