<svg width="284" height="284" viewBox="0 0 284 284" fill="none" xmlns="http://www.w3.org/2000/svg">
<g clip-path="url(#clip0_269_2)">
<path d="M273.2 58.3H263.5C262.1 58.3 260.9 58.6 259.7 59.3C259.4 51.1 252.6 44.6 244.3 44.6H220V33.7C227.6 32.9 233.7 26.3 233.7 18.5C233.7 10.1 226.8 3.09998 218.3 3.09998H167.1C158.7 3.09998 151.7 9.99998 151.7 18.5C151.7 26.3 157.7 32.9 165.4 33.7V44.6H139.8C131.4 44.6 124.4 51.5 124.4 60V123.7C124.4 131.9 130.9 138.6 139 139.1C138.4 140.1 138.1 141.3 138.1 142.5C138.1 146.3 141.2 149.3 144.9 149.3H153.4C157.2 149.3 160.2 146.2 160.2 142.5C160.2 141.2 159.9 140.1 159.3 139.1H224.7C224.1 140.1 223.8 141.3 223.8 142.5C223.8 146.3 226.9 149.3 230.6 149.3H241.2C245 149.3 248 146.2 248 142.5C248 141.1 247.7 139.9 247 138.9C254.3 137.6 259.9 131.4 259.9 123.8V71.5C260.9 72.2 262.3 72.5 263.5 72.5H273.2C277.1 72.5 280.3 69.3 280.3 65.4C280.3 61.6 277.2 58.3 273.2 58.3ZM167.2 30.4C160.6 30.4 155.3 25.1 155.3 18.5C155.3 11.9 160.6 6.59998 167.2 6.59998H218.4C225 6.59998 230.3 11.9 230.3 18.5C230.3 25.1 225 30.4 218.4 30.4H216.7V44.6H168.9V30.4H167.2ZM157 142.4C157 144.3 155.5 145.8 153.6 145.8H145C143.1 145.8 141.6 144.3 141.6 142.4C141.6 140.5 143.1 139 145 139H153.5C155.4 139 157 140.6 157 142.4ZM241.3 145.9H230.7C228.8 145.9 227.3 144.4 227.3 142.5C227.3 140.6 228.8 139.1 230.7 139.1H241.3C243.2 139.1 244.7 140.6 244.7 142.5C244.7 144.4 243.2 145.9 241.3 145.9ZM256.5 123.7C256.5 130.3 251.2 135.6 244.6 135.6H241.4H230.8H153.7H145.2H140C133.4 135.6 128.1 130.3 128.1 123.7V60C128.1 53.4 133.4 48.1 140 48.1H244.7C251.3 48.1 256.6 53.4 256.6 60V123.7H256.5ZM273.2 69.1H263.5C261.5 69.1 259.9 67.4 259.9 65.5C259.9 63.6 261.6 61.9 263.5 61.9H273.2C275.2 61.9 276.8 63.6 276.8 65.5C276.9 67.4 275.3 69.1 273.2 69.1Z" fill="#E3C77E" stroke="#E3C77E" stroke-width="3" stroke-miterlimit="10"/>
<path d="M151.9 63.7C146.2 63.7 141.7 68.3 141.7 73.9C141.7 79.5 146.3 84.0999 151.9 84.0999C157.5 84.0999 162.1 79.5 162.1 73.9C162.1 68.3 157.4 63.7 151.9 63.7ZM151.9 80.8C148.1 80.8 145.1 77.7 145.1 74C145.1 70.2 148.2 67.1999 151.9 67.1999C155.7 67.1999 158.7 70.3 158.7 74C158.7 77.7 155.6 80.8 151.9 80.8Z" fill="#E3C77E" stroke="#E3C77E" stroke-width="3" stroke-miterlimit="10"/>
<path d="M151.9 86.2C146.2 86.2 141.7 90.8 141.7 96.4C141.7 102 146.3 106.6 151.9 106.6C157.5 106.6 162.1 102 162.1 96.4C162.1 90.8 157.4 86.2 151.9 86.2ZM151.9 103.3C148.1 103.3 145.1 100.2 145.1 96.5C145.1 92.7 148.2 89.7 151.9 89.7C155.7 89.7 158.7 92.8 158.7 96.5C158.7 100.2 155.6 103.3 151.9 103.3Z" fill="#E3C77E" stroke="#E3C77E" stroke-width="3" stroke-miterlimit="10"/>
<path d="M129 174.7C111.9 164.7 81.7 164 72.8 164C68.2 164 64.5 167.4 64 172L63.9 172.7C62.5 187.3 61.3 203.4 63.9 209.8C64.8 212.1 68.2 215.4 86.9 217.2C88.2 223.8 94 228.8 101 228.8H122.8C129.6 228.8 135.3 224 136.8 217.8C160.2 216.3 160.2 213.4 160.2 211.8C160.2 207.9 157.1 201.6 152.1 195.1C148 189.5 140.5 181.5 129 174.7ZM123 225.5H101.2C95.2 225.5 90.3 220.6 90.3 214.6C90.3 208.6 95.2 203.7 101.2 203.7H123C129 203.7 133.9 208.6 133.9 214.6C133.9 220.6 129 225.5 123 225.5ZM137.3 214.4C137.2 206.6 130.8 200.2 123 200.2H101.2C93.6 200.2 87.3 206.2 86.9 213.9C69.2 212.1 67.4 209 67.2 208.7C64.7 202.4 66.5 183.4 67.4 173.2L67.5 172.5C67.7 169.7 70 167.6 72.8 167.6C81.4 167.6 111 168.3 127.3 177.8C147.2 189.5 156.4 206.4 157 211.5C155.6 212.2 150.3 213.5 137.3 214.4Z" fill="#E3C77E" stroke="#E3C77E" stroke-width="3" stroke-miterlimit="10"/>
<path d="M242.2 264.3C240.9 258.2 233.6 229.5 199.4 196.6C162.7 161.1 136.2 135.5 39.5999 143.8V143.9L39.6999 157C36.4999 157.1 31.0999 157.7 25.4999 159.6C14.5999 163.4 7.99988 170.6 6.49988 180.5C3.89988 198.4 3.89988 222.9 4.09988 232.7C4.19988 236.6 7.29988 239.8 10.9999 240C12.8999 240.1 14.3999 240.1 15.5999 240.1C19.1999 240.1 19.6999 239.6 20.1999 239.3C20.4999 239 20.7999 238.5 20.7999 237.9C20.7999 237.6 21.0999 199.5 21.3999 190.9C21.5999 184.5 22.3999 178 26.8999 174.2C29.8999 171.6 34.2999 170.4 39.9999 170.8L40.4999 234.4H41.9999C42.0999 234.4 53.6999 234.5 56.2999 242.7C58.5999 249.9 58.8999 260 58.8999 264H56.4999C52.1999 264 48.4999 267.5 48.4999 272C48.4999 276.5 51.9999 280 56.4999 280H240.2C244.5 280 248.2 276.5 248.2 272C248.1 268.3 245.6 265.2 242.2 264.3ZM59.5999 241.6C56.8999 233.2 47.6999 231.4 43.7999 231L43.2999 167.5H42.3999C34.6999 166.7 28.6999 168.1 24.6999 171.6C18.3999 177.1 18.1999 186.3 17.9999 190.8C17.7999 198.5 17.4999 229.9 17.3999 236.6C16.4999 236.7 14.7999 236.7 11.3999 236.5C9.39988 236.4 7.59988 234.7 7.59988 232.6C7.49988 222.9 7.39988 198.5 9.99988 181C11.2999 172.2 16.8999 166.1 26.6999 162.8C33.9999 160.3 40.9999 160.3 42.3999 160.3H42.4999V160.2H43.2999L43.1999 147C135.6 139.7 161.5 164.6 197.2 199.1C216.4 217.6 226.8 234.8 232.1 246.1C236.2 254.6 238 261.1 238.7 264.1H62.3999C62.2999 259.8 62.0999 249.5 59.5999 241.6ZM240.2 276.4H56.4999C53.9999 276.4 51.8999 274.4 51.8999 271.8C51.8999 269.2 53.8999 267.2 56.4999 267.2H58.8999H240.2C242.7 267.2 244.8 269.2 244.8 271.8C244.8 274.4 242.7 276.4 240.2 276.4Z" fill="#E3C77E" stroke="#E3C77E" stroke-width="3" stroke-miterlimit="10"/>
</g>
<defs>
<clipPath id="clip0_269_2">
<rect width="283.5" height="283.5" fill="white"/>
</clipPath>
</defs>
</svg>
