<svg width="284" height="284" viewBox="0 0 284 284" fill="none" xmlns="http://www.w3.org/2000/svg">
<g clip-path="url(#clip0_269_13)">
<path d="M265.2 5.09998H20.5C13.1 5.09998 7 11.2 7 18.6V204.1C7 211.5 13.1 217.6 20.5 217.6H150.9V264.9C150.9 272.3 157 278.4 164.4 278.4H225.8C233.2 278.4 239.3 272.3 239.3 264.9V217.5H265.1C272.5 217.5 278.6 211.4 278.6 204V18.5C278.7 11.1 272.6 5.09998 265.2 5.09998ZM236.3 264.9C236.3 270.7 231.6 275.4 225.8 275.4H164.4C158.6 275.4 153.9 270.7 153.9 264.9V117.8C153.9 112 158.6 107.3 164.4 107.3H225.8C231.6 107.3 236.3 112 236.3 117.8V264.9ZM225.8 104.3H164.4C157 104.3 150.9 110.4 150.9 117.8V190.4H37.7C33.4 190.4 30 186.9 30 182.7V37C30 32.7 33.5 29.3 37.7 29.3H244.6C248.9 29.3 252.3 32.8 252.3 37V182.7C252.3 187 248.8 190.4 244.6 190.4H239.3V117.8C239.3 110.3 233.3 104.3 225.8 104.3ZM275.7 204C275.7 209.8 271 214.5 265.2 214.5H239.4V193.3H244.7C250.6 193.3 255.4 188.5 255.4 182.6V36.9C255.4 31 250.6 26.2 244.7 26.2H37.8C31.9 26.2 27.1 31 27.1 36.9V182.6C27.1 188.5 31.9 193.3 37.8 193.3H151V214.5H20.6C14.8 214.5 10.1 209.8 10.1 204V18.5C10.1 12.7 14.8 7.99998 20.6 7.99998H265.3C271.1 7.99998 275.8 12.7 275.8 18.5L275.7 204Z" fill="#5FBCA4" stroke="#5FBCA4" stroke-width="3" stroke-miterlimit="10"/>
<path d="M221.9 129.6H167.7C161.8 129.6 156.9 134.4 156.9 140.4V240.3C156.9 246.2 161.7 251.1 167.7 251.1H221.9C227.8 251.1 232.7 246.3 232.7 240.3V140.4C232.7 134.5 227.8 129.6 221.9 129.6ZM229.7 240.3C229.7 244.6 226.2 248.1 221.9 248.1H167.7C163.4 248.1 159.9 244.6 159.9 240.3V140.4C159.9 136.1 163.4 132.6 167.7 132.6H221.9C226.2 132.6 229.7 136.1 229.7 140.4V240.3Z" fill="#5FBCA4" stroke="#5FBCA4" stroke-width="3" stroke-miterlimit="10"/>
<path d="M19.7 104.3C16 104.3 13 107.3 13 111C13 114.7 16 117.7 19.7 117.7C23.4 117.7 26.4 114.7 26.4 111C26.3 107.3 23.3 104.3 19.7 104.3ZM19.7 114.6C17.7 114.6 16 113 16 110.9C16 108.9 17.6 107.2 19.7 107.2C21.7 107.2 23.4 108.8 23.4 110.9C23.3 113 21.7 114.6 19.7 114.6Z" fill="#5FBCA4" stroke="#5FBCA4" stroke-width="3" stroke-miterlimit="10"/>
<path d="M263 104.3C259.3 104.3 256.3 107.3 256.3 111C256.3 114.7 259.3 117.7 263 117.7C266.7 117.7 269.7 114.7 269.7 111C269.7 107.3 266.7 104.3 263 104.3ZM263 114.6C261 114.6 259.3 113 259.3 110.9C259.3 108.9 260.9 107.2 263 107.2C265.1 107.2 266.7 108.8 266.7 110.9C266.7 113 265 114.6 263 114.6Z" fill="#5FBCA4" stroke="#5FBCA4" stroke-width="3" stroke-miterlimit="10"/>
<path d="M195.8 255C191.3 255 187.6 258.7 187.6 263.2C187.6 267.7 191.3 271.4 195.8 271.4C200.3 271.4 204 267.7 204 263.2C204 258.6 200.3 255 195.8 255ZM195.8 268.3C193 268.3 190.6 266 190.6 263.1C190.6 260.2 192.9 257.9 195.8 257.9C198.7 257.9 201 260.2 201 263.1C201 266 198.7 268.3 195.8 268.3Z" fill="#5FBCA4" stroke="#5FBCA4" stroke-width="3" stroke-miterlimit="10"/>
<path d="M189.2 127H201.2C204.6 127 207.4 124.2 207.4 120.8C207.4 117.4 204.6 114.6 201.2 114.6H189.2C185.8 114.6 183 117.4 183 120.8C183 124.2 185.8 127 189.2 127ZM189.2 117.6H201.2C202.9 117.6 204.4 119 204.4 120.8C204.4 122.6 203 124 201.2 124H189.2C187.5 124 186 122.6 186 120.8C186 119 187.4 117.6 189.2 117.6Z" fill="#5FBCA4" stroke="#5FBCA4" stroke-width="3" stroke-miterlimit="10"/>
</g>
<defs>
<clipPath id="clip0_269_13">
<rect width="283.5" height="283.5" fill="white"/>
</clipPath>
</defs>
</svg>
