<svg width="240" height="40" viewBox="0 0 240 40" fill="none" xmlns="http://www.w3.org/2000/svg">
<g clip-path="url(#clip0_111_7)">
<rect x="1" y="1" width="238" height="38" rx="5" stroke="#EFDE00" stroke-width="2"/>
<path d="M8.65 28V12.072H13.534V23.908H24.512V28H8.65ZM27.6895 28V12.072H45.1135V15.768H32.5735V18.32H44.4535V21.62H32.5735V24.172H45.3995V28H27.6895ZM49.4574 28V12.072H57.0254L66.1994 23.644H66.2434V12.072H71.1274V28H63.5594L54.3854 16.428H54.3414V28H49.4574ZM80.4063 16.032V19.904H88.4803C89.1403 19.904 89.6023 19.772 89.8663 19.508C90.1449 19.2293 90.2843 18.804 90.2843 18.232V17.704C90.2843 17 90.1009 16.5453 89.7343 16.34C89.3823 16.1347 88.8176 16.032 88.0403 16.032H80.4063ZM75.5223 28V12.072H90.2623C91.2009 12.072 91.9783 12.1893 92.5943 12.424C93.2103 12.644 93.6943 12.9593 94.0463 13.37C94.4129 13.7807 94.6696 14.2793 94.8163 14.866C94.9629 15.438 95.0363 16.0833 95.0363 16.802V17.814C95.0363 18.342 94.9996 18.8187 94.9263 19.244C94.8529 19.6693 94.7136 20.0433 94.5083 20.366C94.3176 20.6887 94.0389 20.9673 93.6723 21.202C93.3203 21.422 92.8656 21.598 92.3083 21.73V21.774C92.6749 21.8473 93.0196 21.95 93.3423 22.082C93.6649 22.1993 93.9436 22.39 94.1783 22.654C94.4276 22.918 94.6183 23.2627 94.7503 23.688C94.8969 24.0987 94.9703 24.634 94.9703 25.294V28H90.0863V26.086C90.0863 25.25 89.9396 24.6707 89.6463 24.348C89.3676 24.0253 88.8469 23.864 88.0843 23.864H80.4063V28H75.5223ZM99.4387 28V12.072H116.863V15.768H104.323V18.32H116.203V21.62H104.323V24.172H117.149V28H99.4387ZM121.207 28V12.072H128.709L134.231 22.324L139.753 12.072H147.255V28H142.503V16.56H142.459L136.057 28H132.405L126.003 16.56H125.959V28H121.207ZM151.302 22.412V17.66C151.302 16.5013 151.456 15.548 151.764 14.8C152.087 14.052 152.549 13.4653 153.15 13.04C153.766 12.6 154.507 12.2993 155.372 12.138C156.238 11.9767 157.22 11.896 158.32 11.896H166.152C167.252 11.896 168.235 11.9767 169.1 12.138C169.966 12.2993 170.699 12.6 171.3 13.04C171.916 13.4653 172.378 14.052 172.686 14.8C173.009 15.548 173.17 16.5013 173.17 17.66V22.412C173.17 23.5853 173.009 24.546 172.686 25.294C172.378 26.0273 171.916 26.614 171.3 27.054C170.699 27.4793 169.966 27.7727 169.1 27.934C168.235 28.0953 167.252 28.176 166.152 28.176H158.32C157.22 28.176 156.238 28.0953 155.372 27.934C154.507 27.7727 153.766 27.4793 153.15 27.054C152.549 26.614 152.087 26.0273 151.764 25.294C151.456 24.546 151.302 23.5853 151.302 22.412ZM156.318 19.178V20.894C156.318 21.466 156.355 21.9573 156.428 22.368C156.502 22.7787 156.641 23.1087 156.846 23.358C157.052 23.6073 157.338 23.7907 157.704 23.908C158.071 24.0253 158.54 24.084 159.112 24.084H165.36C165.932 24.084 166.402 24.0253 166.768 23.908C167.135 23.7907 167.421 23.6073 167.626 23.358C167.832 23.1087 167.971 22.7787 168.044 22.368C168.118 21.9573 168.154 21.466 168.154 20.894V19.178C168.154 18.6793 168.11 18.2393 168.022 17.858C167.949 17.462 167.802 17.1247 167.582 16.846C167.362 16.5673 167.054 16.3547 166.658 16.208C166.262 16.0613 165.742 15.988 165.096 15.988H159.376C158.731 15.988 158.21 16.0613 157.814 16.208C157.418 16.3547 157.11 16.5673 156.89 16.846C156.67 17.1247 156.516 17.462 156.428 17.858C156.355 18.2393 156.318 18.6793 156.318 19.178ZM177.225 28V12.072H184.793L193.967 23.644H194.011V12.072H198.895V28H191.327L182.153 16.428H182.109V28H177.225ZM202.124 16.032V12.072H220.736V16.032H213.872V28H208.988V16.032H202.124Z" fill="#EFDE00"/>
<path d="M227.024 11.996V7.436H228.788C229.108 7.436 229.392 7.46 229.64 7.508C229.888 7.548 230.096 7.624 230.264 7.736C230.432 7.848 230.556 7.996 230.636 8.18C230.724 8.364 230.768 8.596 230.768 8.876C230.768 9.316 230.656 9.628 230.432 9.812C230.208 9.996 229.928 10.096 229.592 10.112L230.612 11.996H229.448L228.536 10.184H228.104V11.996H227.024ZM228.104 8.3V9.32H228.98C229.188 9.32 229.344 9.284 229.448 9.212C229.56 9.14 229.616 8.988 229.616 8.756C229.616 8.652 229.584 8.568 229.52 8.504C229.464 8.44 229.392 8.396 229.304 8.372C229.216 8.34 229.12 8.32 229.016 8.312C228.92 8.304 228.828 8.3 228.74 8.3H228.104ZM228.8 12.8C229.232 12.8 229.632 12.728 230 12.584C230.368 12.432 230.684 12.22 230.948 11.948C231.212 11.676 231.42 11.348 231.572 10.964C231.724 10.572 231.8 10.136 231.8 9.656C231.8 9.176 231.724 8.744 231.572 8.36C231.42 7.968 231.212 7.636 230.948 7.364C230.684 7.092 230.368 6.884 230 6.74C229.632 6.588 229.232 6.512 228.8 6.512C228.368 6.512 227.968 6.588 227.6 6.74C227.232 6.884 226.916 7.092 226.652 7.364C226.388 7.636 226.18 7.968 226.028 8.36C225.876 8.744 225.8 9.176 225.8 9.656C225.8 10.136 225.876 10.572 226.028 10.964C226.18 11.348 226.388 11.676 226.652 11.948C226.916 12.22 227.232 12.432 227.6 12.584C227.968 12.728 228.368 12.8 228.8 12.8ZM224.36 9.656C224.36 9.048 224.476 8.476 224.708 7.94C224.94 7.396 225.256 6.924 225.656 6.524C226.064 6.116 226.536 5.796 227.072 5.564C227.608 5.332 228.184 5.216 228.8 5.216C229.408 5.216 229.98 5.332 230.516 5.564C231.06 5.796 231.532 6.116 231.932 6.524C232.34 6.924 232.66 7.396 232.892 7.94C233.124 8.476 233.24 9.048 233.24 9.656C233.24 10.272 233.124 10.848 232.892 11.384C232.66 11.92 232.34 12.392 231.932 12.8C231.532 13.2 231.06 13.516 230.516 13.748C229.98 13.98 229.408 14.096 228.8 14.096C228.184 14.096 227.608 13.98 227.072 13.748C226.536 13.516 226.064 13.2 225.656 12.8C225.256 12.392 224.94 11.92 224.708 11.384C224.476 10.848 224.36 10.272 224.36 9.656Z" fill="#EFDE00"/>
</g>
<defs>
<clipPath id="clip0_111_7">
<rect width="240" height="40" fill="white"/>
</clipPath>
</defs>
</svg>
